<svg xmlns="http://www.w3.org/2000/svg" width="589px" height="441px" viewBox="0 0 589 441" xmlns:xlink="http://www.w3.org/1999/xlink" style="overflow: hidden; display: block; width: 589px; height: 441px;"><clipPath id="ygc101_14"><rect width="538.688" y="25" height="390.656" x="25"/></clipPath><g clip-path="url(#ygc101_14)"><g style="pointer-events:visiblePainted" transform="matrix(1.5 0 0 1.5 68.78125 32.5)" image-rendering="auto" shape-rendering="auto"><g><path fill="none" stroke="rgb(255,140,0)" d="M 141.14094112592073,29.276093006258236 L 78.3389443014538,95.10614725723337" stroke-opacity="1" stroke-width="1" stroke-linecap="butt" stroke-linejoin="miter" stroke-miterlimit="10"/><use xlink:href="#ygc101_0" transform="matrix(0.6902699323858397 -0.7235519473016767 0.7235519473016767 0.6902699323858397 74.8875946395246 98.72390699374176)" style="pointer-events: none;"/></g><g transform="translate(118.53345948826049 32.16245083061375)"><text font-family="'Arial'" font-size="12px" font-style="normal" font-weight="normal" text-decoration="none" text-anchor="middle" fill="rgb(0,0,0)" fill-opacity="1" dy="0.9166666666666666em" transform="translate(3.5 0)">0</text></g><g><path fill="none" stroke="rgb(0,128,0)" d="M 164.56377322800637,29.276093006258208 L 227.36577005247332,95.10614725723337" stroke-opacity="1" stroke-width="1" stroke-linecap="butt" stroke-linejoin="miter" stroke-miterlimit="10"/><use xlink:href="#ygc101_1" transform="matrix(-0.6902699323858397 -0.7235519473016767 0.7235519473016767 -0.6902699323858397 230.8171197144025 98.72390699374176)" style="pointer-events: none;"/></g><g transform="translate(180.17125486566658 32.16245083061372)"><text font-family="'Arial'" font-size="12px" font-style="normal" font-weight="normal" text-decoration="none" text-anchor="middle" fill="rgb(0,0,0)" fill-opacity="1" dy="0.9166666666666666em" transform="translate(3.5 0)">1</text></g><g><path fill="none" stroke="rgb(255,140,0)" d="M 55.880167055017026,126.29559120249523 L 27.786749756886366,185.19152694798808" stroke-opacity="1" stroke-width="1" stroke-linecap="butt" stroke-linejoin="miter" stroke-miterlimit="10"/><use xlink:href="#ygc101_2" transform="matrix(0.4305297858361444 -0.902576369903336 0.902576369903336 0.4305297858361444 25.634100827705645 189.70440879750475)" style="pointer-events: none;"/></g><g transform="translate(38.48107727510242 132.17272579551468)"><text font-family="'Arial'" font-size="12px" font-style="normal" font-weight="normal" text-decoration="none" text-anchor="middle" fill="rgb(0,0,0)" fill-opacity="1" dy="0.9166666666666666em" transform="translate(3.5 0)">0</text></g><g><path fill="none" stroke="rgb(255,140,0)" d="M 18.33808929424089,188 L 18.33808929424089,180 L -23.1875,180 L -23.1875,205 L -3.6619107057591087,205" stroke-opacity="1" stroke-width="1" stroke-linecap="butt" stroke-linejoin="miter" stroke-miterlimit="10"/><use xlink:href="#ygc101_3" transform="matrix(-1 0 0 -1 1.3380892942408913 205)" style="pointer-events: none;"/></g><g transform="matrix(1 1.2246467991473532e-16 -1.2246467991473532e-16 1 -20.186500000000006 180.001)"><text font-family="'Arial'" font-size="12px" font-style="normal" font-weight="normal" text-decoration="none" text-anchor="middle" fill="rgb(0,0,0)" fill-opacity="1" dy="0.9166666666666666em" transform="translate(7.5 3.5)">0</text></g><g><path fill="none" stroke="rgb(255,140,0)" d="M 197.69044647120444,222 L 197.69044647120444,235 L 18.33808929424089,235 L 18.33808929424089,227" stroke-opacity="1" stroke-width="1" stroke-linecap="butt" stroke-linejoin="miter" stroke-miterlimit="10"/><use xlink:href="#ygc101_4" transform="matrix(0 1 -1 0 18.33808929424089 222)" style="pointer-events: none;"/></g><g transform="matrix(1 1.2246467991473532e-16 -1.2246467991473532e-16 1 34.18848055315229 220.99899999999946)"><text font-family="'Arial'" font-size="12px" font-style="normal" font-weight="normal" text-decoration="none" text-anchor="middle" fill="rgb(0,0,0)" fill-opacity="1" dy="0.9166666666666666em" transform="translate(3.5 0)">0</text></g><g><path fill="none" stroke="rgb(0,128,0)" d="M 35.3380892942409,205 L 86.01426788272266,205" stroke-opacity="1" stroke-width="1" stroke-linecap="butt" stroke-linejoin="miter" stroke-miterlimit="10"/><use xlink:href="#ygc101_5" transform="matrix(-1 0 0 -1 91.01426788272266 205)" style="pointer-events: none;"/></g><g transform="translate(57.176178588481775 190.99899999999997)"><text font-family="'Arial'" font-size="12px" font-style="normal" font-weight="normal" text-decoration="none" text-anchor="middle" fill="rgb(0,0,0)" fill-opacity="1" dy="0.9166666666666666em" transform="translate(3.5 0)">1</text></g><g><path fill="none" stroke="rgb(0,128,0)" d="M 249.8245472989101,126.29559120249523 L 277.91796459704074,185.1915269479881" stroke-opacity="1" stroke-width="1" stroke-linecap="butt" stroke-linejoin="miter" stroke-miterlimit="10"/><use xlink:href="#ygc101_6" transform="matrix(-0.43052978583614404 -0.9025763699033362 0.9025763699033362 -0.43052978583614404 280.07061352622145 189.70440879750478)" style="pointer-events: none;"/></g><g transform="translate(260.2236370788247 132.17272579551468)"><text font-family="'Arial'" font-size="12px" font-style="normal" font-weight="normal" text-decoration="none" text-anchor="middle" fill="rgb(0,0,0)" fill-opacity="1" dy="0.9166666666666666em" transform="translate(3.5 0)">1</text></g><g><path fill="none" stroke="rgb(255,140,0)" d="M 270.3666250596862,205 L 219.69044647120444,205" stroke-opacity="1" stroke-width="1" stroke-linecap="butt" stroke-linejoin="miter" stroke-miterlimit="10"/><use xlink:href="#ygc101_7" transform="translate(214.69044647120444 205)" style="pointer-events: none;"/></g><g transform="matrix(1 1.2246467991473532e-16 -1.2246467991473532e-16 1 241.52853576544533 190.999)"><text font-family="'Arial'" font-size="12px" font-style="normal" font-weight="normal" text-decoration="none" text-anchor="middle" fill="rgb(0,0,0)" fill-opacity="1" dy="0.9166666666666666em" transform="translate(3.5 0)">0</text></g><g><path fill="none" stroke="rgb(0,128,0)" d="M 287.3666250596862,188 L 287.3666250596862,180 L 323.9375,180 L 323.9375,205 L 315.7047143539271,205 L 309.3666250596862,205" stroke-opacity="1" stroke-width="1" stroke-linecap="butt" stroke-linejoin="miter" stroke-miterlimit="10"/><use xlink:href="#ygc101_8" transform="translate(304.3666250596862 205)" style="pointer-events: none;"/></g><g transform="translate(305.9365 180.001)"><text font-family="'Arial'" font-size="12px" font-style="normal" font-weight="normal" text-decoration="none" text-anchor="middle" fill="rgb(0,0,0)" fill-opacity="1" dy="0.9166666666666666em" transform="translate(7.5 3.5)">1</text></g><g><path fill="none" stroke="rgb(0,128,0)" d="M 108.01426788272266,222 L 108.01426788272266,249.4375 L 287.3666250596862,249.4375 L 287.3666250596862,227" stroke-opacity="1" stroke-width="1" stroke-linecap="butt" stroke-linejoin="miter" stroke-miterlimit="10"/><use xlink:href="#ygc101_9" transform="matrix(0 1 -1 0 287.3666250596862 222)" style="pointer-events: none;"/></g><g transform="translate(266.5673692608786 235.43649999999934)"><text font-family="'Arial'" font-size="12px" font-style="normal" font-weight="normal" text-decoration="none" text-anchor="middle" fill="rgb(0,0,0)" fill-opacity="1" dy="0.9166666666666666em" transform="translate(3.5 0)">1</text></g><g><path fill="none" stroke="rgb(0,128,0)" d="M 70.47219012194651,126.29559120249522 L 98.56560742007717,185.19152694798808" stroke-opacity="1" stroke-width="1" stroke-linecap="butt" stroke-linejoin="miter" stroke-miterlimit="10"/><use xlink:href="#ygc101_10" transform="matrix(-0.43052978583614426 -0.902576369903336 0.902576369903336 -0.43052978583614426 100.7182563492579 189.70440879750475)" style="pointer-events: none;"/></g><g transform="translate(80.87127990186109 132.17272579551468)"><text font-family="'Arial'" font-size="12px" font-style="normal" font-weight="normal" text-decoration="none" text-anchor="middle" fill="rgb(0,0,0)" fill-opacity="1" dy="0.9166666666666666em" transform="translate(3.5 0)">1</text></g><g><path fill="none" stroke="rgb(255,140,0)" d="M 235.2325242319806,126.29559120249522 L 207.1391069338499,185.19152694798808" stroke-opacity="1" stroke-width="1" stroke-linecap="butt" stroke-linejoin="miter" stroke-miterlimit="10"/><use xlink:href="#ygc101_11" transform="matrix(0.4305297858361448 -0.9025763699033358 0.9025763699033358 0.4305297858361448 204.98645800466917 189.70440879750475)" style="pointer-events: none;"/></g><g transform="translate(217.83343445206594 132.17272579551468)"><text font-family="'Arial'" font-size="12px" font-style="normal" font-weight="normal" text-decoration="none" text-anchor="middle" fill="rgb(0,0,0)" fill-opacity="1" dy="0.9166666666666666em" transform="translate(3.5 0)">0</text></g><g><path fill="none" stroke="rgb(255,140,0)" d="M 123.47052883361316,198 L 177.23418552031393,198" stroke-opacity="1" stroke-width="1" stroke-linecap="butt" stroke-linejoin="miter" stroke-miterlimit="10"/><use xlink:href="#ygc101_12" transform="matrix(-1 0 0 -1 182.23418552031393 198)" style="pointer-events: none;"/></g><g transform="translate(131.35235717696355 183.999)"><text font-family="'Arial'" font-size="12px" font-style="normal" font-weight="normal" text-decoration="none" text-anchor="middle" fill="rgb(0,0,0)" fill-opacity="1" dy="0.9166666666666666em" transform="translate(3.5 0)">0</text></g><g><path fill="none" stroke="rgb(0,128,0)" d="M 182.23418552031393,212 L 128.47052883361317,212" stroke-opacity="1" stroke-width="1" stroke-linecap="butt" stroke-linejoin="miter" stroke-miterlimit="10"/><use xlink:href="#ygc101_13" transform="translate(123.47052883361317 212)" style="pointer-events: none;"/></g><g transform="matrix(1 1.2246467991473532e-16 -1.2246467991473532e-16 1 167.35235717696355 212.001)"><text font-family="'Arial'" font-size="12px" font-style="normal" font-weight="normal" text-decoration="none" text-anchor="middle" fill="rgb(0,0,0)" fill-opacity="1" dy="0.9166666666666666em" transform="translate(3.5 0)">1</text></g><path d="M 18.33808929424089 17 m -17, 0 a 17,17 0 1,0 34,0 a 17,17 0 1,0 -34,0M 18.33808929424089 17 m -12, 0 a 12,12 0 1,0 24,0 a 12,12 0 1,0 -24,0" fill="white" stroke="cyan" transform="translate(134.51426788272266 0)"/><g transform="translate(149.35235717696355 10)"><text font-family="'Arial'" font-size="12px" font-style="normal" font-weight="normal" text-decoration="none" text-anchor="middle" fill="rgb(0,0,0)" fill-opacity="1" dy="0.9166666666666666em" transform="translate(3.5 0)">0</text></g><path d="M 18.33808929424089 17 m -17, 0 a 17,17 0 1,0 34,0 a 17,17 0 1,0 -34,0M 18.33808929424089 17 m -12, 0 a 12,12 0 1,0 24,0 a 12,12 0 1,0 -24,0" fill="white" stroke="magenta" transform="translate(0 188)"/><g transform="translate(14.838089294240891 198)"><text font-family="'Arial'" font-size="12px" font-style="normal" font-weight="normal" text-decoration="none" text-anchor="middle" fill="rgb(0,0,0)" fill-opacity="1" dy="0.9166666666666666em" transform="translate(3.5 0)">3</text></g><path d="M 18.33808929424089 17 m -17, 0 a 17,17 0 1,0 34,0 a 17,17 0 1,0 -34,0M 18.33808929424089 17 m -12, 0 a 12,12 0 1,0 24,0 a 12,12 0 1,0 -24,0" fill="white" stroke="magenta" transform="translate(269.0285357654453 188)"/><g transform="translate(283.8666250596862 198)"><text font-family="'Arial'" font-size="12px" font-style="normal" font-weight="normal" text-decoration="none" text-anchor="middle" fill="rgb(0,0,0)" fill-opacity="1" dy="0.9166666666666666em" transform="translate(3.5 0)">6</text></g><path d="M 18.33808929424089 17 m -17, 0 a 17,17 0 1,0 34,0 a 17,17 0 1,0 -34,0" fill="white" stroke="black" transform="translate(44.83808929424089 94)"/><g transform="translate(59.676178588481775 104)"><text font-family="'Arial'" font-size="12px" font-style="normal" font-weight="normal" text-decoration="none" text-anchor="middle" fill="rgb(0,0,0)" fill-opacity="1" dy="0.9166666666666666em" transform="translate(3.5 0)">1</text></g><path d="M 18.33808929424089 17 m -17, 0 a 17,17 0 1,0 34,0 a 17,17 0 1,0 -34,0" fill="white" stroke="black" transform="translate(224.19044647120444 94)"/><g transform="translate(239.02853576544533 104)"><text font-family="'Arial'" font-size="12px" font-style="normal" font-weight="normal" text-decoration="none" text-anchor="middle" fill="rgb(0,0,0)" fill-opacity="1" dy="0.9166666666666666em" transform="translate(3.5 0)">2</text></g><path d="M 18.33808929424089 17 m -17, 0 a 17,17 0 1,0 34,0 a 17,17 0 1,0 -34,0" fill="white" stroke="black" transform="translate(89.67617858848178 188)"/><g transform="translate(104.51426788272266 198)"><text font-family="'Arial'" font-size="12px" font-style="normal" font-weight="normal" text-decoration="none" text-anchor="middle" fill="rgb(0,0,0)" fill-opacity="1" dy="0.9166666666666666em" transform="translate(3.5 0)">4</text></g><path d="M 18.33808929424089 17 m -17, 0 a 17,17 0 1,0 34,0 a 17,17 0 1,0 -34,0" fill="white" stroke="black" transform="translate(179.35235717696355 188)"/><g transform="translate(194.19044647120444 198)"><text font-family="'Arial'" font-size="12px" font-style="normal" font-weight="normal" text-decoration="none" text-anchor="middle" fill="rgb(0,0,0)" fill-opacity="1" dy="0.9166666666666666em" transform="translate(3.5 0)">5</text></g></g></g><defs><path fill="rgb(255,140,0)" stroke="none" d="M 0,0 L 10,-5 L 5,0 L 10,5 Z" fill-opacity="1" id="ygc101_0"/><path fill="rgb(0,128,0)" stroke="none" d="M 0,0 L 10,-5 L 5,0 L 10,5 Z" fill-opacity="1" id="ygc101_1"/><path fill="rgb(255,140,0)" stroke="none" d="M 0,0 L 10,-5 L 5,0 L 10,5 Z" fill-opacity="1" id="ygc101_2"/><path fill="rgb(255,140,0)" stroke="none" d="M 0,0 L 10,-5 L 5,0 L 10,5 Z" fill-opacity="1" id="ygc101_3"/><path fill="rgb(255,140,0)" stroke="none" d="M 0,0 L 10,-5 L 5,0 L 10,5 Z" fill-opacity="1" id="ygc101_4"/><path fill="rgb(0,128,0)" stroke="none" d="M 0,0 L 10,-5 L 5,0 L 10,5 Z" fill-opacity="1" id="ygc101_5"/><path fill="rgb(0,128,0)" stroke="none" d="M 0,0 L 10,-5 L 5,0 L 10,5 Z" fill-opacity="1" id="ygc101_6"/><path fill="rgb(255,140,0)" stroke="none" d="M 0,0 L 10,-5 L 5,0 L 10,5 Z" fill-opacity="1" id="ygc101_7"/><path fill="rgb(0,128,0)" stroke="none" d="M 0,0 L 10,-5 L 5,0 L 10,5 Z" fill-opacity="1" id="ygc101_8"/><path fill="rgb(0,128,0)" stroke="none" d="M 0,0 L 10,-5 L 5,0 L 10,5 Z" fill-opacity="1" id="ygc101_9"/><path fill="rgb(0,128,0)" stroke="none" d="M 0,0 L 10,-5 L 5,0 L 10,5 Z" fill-opacity="1" id="ygc101_10"/><path fill="rgb(255,140,0)" stroke="none" d="M 0,0 L 10,-5 L 5,0 L 10,5 Z" fill-opacity="1" id="ygc101_11"/><path fill="rgb(255,140,0)" stroke="none" d="M 0,0 L 10,-5 L 5,0 L 10,5 Z" fill-opacity="1" id="ygc101_12"/><path fill="rgb(0,128,0)" stroke="none" d="M 0,0 L 10,-5 L 5,0 L 10,5 Z" fill-opacity="1" id="ygc101_13"/></defs></svg>